<svg xmlns="http://www.w3.org/2000/svg" viewBox="0 0 500 500" style="enable-background:new 0 0 500 500" xml:space="preserve"><path style="fill:#ebebeb" d="M0 382.398h500v.25H0zM290.208 389.208h25.459v.25h-25.459zM395.111 394.619h60.333v.25h-60.333zM222.459 389.333h62.333v.25h-62.333zM169 396.814h13.041v.25H169zM194.708 396.814h59.376v.25h-59.376zM52.459 392.592h38.454v.25H52.459zM237.014 337.8H43.915a5.715 5.715 0 0 1-5.708-5.708V60.66a5.715 5.715 0 0 1 5.708-5.708h193.099a5.715 5.715 0 0 1 5.707 5.708v271.432a5.715 5.715 0 0 1-5.707 5.708zM43.915 55.203a5.464 5.464 0 0 0-5.458 5.458v271.432a5.464 5.464 0 0 0 5.458 5.458h193.099a5.463 5.463 0 0 0 5.457-5.458V60.66a5.464 5.464 0 0 0-5.457-5.458H43.915zM453.31 337.8H260.212a5.714 5.714 0 0 1-5.707-5.708V60.66a5.715 5.715 0 0 1 5.707-5.708H453.31a5.714 5.714 0 0 1 5.708 5.708v271.432a5.714 5.714 0 0 1-5.708 5.708zM260.212 55.203a5.463 5.463 0 0 0-5.457 5.458v271.432a5.463 5.463 0 0 0 5.457 5.458H453.31a5.464 5.464 0 0 0 5.458-5.458V60.66a5.464 5.464 0 0 0-5.458-5.458H260.212z"/><path style="fill:#e6e6e6" d="M195.962 295.667h-66.401l-4.031-46.5h66.401z"/><path style="fill:#f0f0f0" d="M199.401 295.667h-66.4l-4.031-46.5h66.4z"/><path style="fill:#fff" d="m142.077 285.681-2.214-26.529h46.43l2.213 26.529z"/><path style="fill:#e6e6e6" d="M203.099 295.667h7.791v86.73h-7.791z"/><path style="fill:#f0f0f0" d="M207.938 295.667h5.411v86.73h-5.411z"/><path transform="rotate(-180 175.644 300.453)" style="fill:#f0f0f0" d="M137.939 295.667h75.409v9.573h-75.409z"/><path style="fill:#e6e6e6" d="M132.814 305.239h7.791v77.157h-7.791z"/><path style="fill:#f0f0f0" d="M137.653 305.239h5.411v77.157h-5.411z"/><path style="fill:#e6e6e6" d="M77.357 305.239h7.791v77.157h-7.791z"/><path style="fill:#f0f0f0" d="M82.196 305.239h5.411v77.157h-5.411z"/><path style="fill:#e6e6e6" d="M153.796 305.239h7.791v77.157h-7.791z"/><path style="fill:#f0f0f0" d="M158.635 305.239h5.411v77.157h-5.411z"/><path style="fill:#e6e6e6" d="M77.357 295.667h60.582v9.573H77.357z"/><path style="fill:#e0e0e0" d="M129.508 79.414h234.33V209.87h-234.33z"/><path style="fill:#f5f5f5" d="M130.691 79.414h246.015V209.87H130.691z"/><path transform="rotate(90 253.699 144.641)" style="fill:#fff" d="M192.49 25.653h122.417v237.976H192.49z"/><path style="fill:#f5f5f5" d="m231.066 205.85 44.93-122.417h-74.15l-44.93 122.417zM302.441 205.85 347.37 83.433h-55.936L246.505 205.85z"/><path style="fill:#e6e6e6" d="M418.192 257.803h19.919v124.595h-19.919z"/><path style="fill:#fafafa" d="M432.874 382.398h5.237v-9.593h-10.729z"/><path style="fill:#e6e6e6" d="M234.535 257.803h19.919v124.595h-19.919z"/><path style="fill:#fafafa" d="M249.883 257.803h188.228V379.81H249.883z"/><path style="fill:#e6e6e6" d="M434.548 297.169H253.446v-34.458h181.102v34.458zm-180.102-1h179.102v-32.458H254.446v32.458z"/><path style="fill:#e6e6e6" d="M402.667 279.441H288.845c-5.286 0-10.375-4.264-13.96-11.698l-.346-.717h142.435l-.346.717c-3.585 7.434-8.674 11.698-13.961 11.698zm-126.526-11.415c3.384 6.631 7.984 10.415 12.704 10.415h113.822c4.72 0 9.321-3.784 12.705-10.415H276.141z"/><path style="fill:#fafafa" d="M255.121 382.398h-5.238v-9.593h10.729z"/><path style="fill:#e6e6e6" d="M434.548 336.036H253.446v-34.458h181.102v34.458zm-180.102-1h179.102v-32.458H254.446v32.458z"/><path style="fill:#e6e6e6" d="M402.667 318.307H288.845c-5.286 0-10.375-4.264-13.96-11.698l-.346-.717h142.435l-.346.717c-3.585 7.435-8.674 11.698-13.961 11.698zm-126.526-11.415c3.384 6.631 7.984 10.415 12.704 10.415h113.822c4.721 0 9.321-3.784 12.705-10.415H276.141zM434.548 374.902H253.446v-34.459h181.102v34.459zm-180.102-1h179.102v-32.459H254.446v32.459z"/><path style="fill:#e6e6e6" d="M402.667 357.173H288.845c-5.286 0-10.375-4.264-13.96-11.698l-.346-.717h142.435l-.346.717c-3.585 7.435-8.674 11.698-13.961 11.698zm-126.526-11.415c3.384 6.631 7.984 10.415 12.704 10.415h113.822c4.721 0 9.321-3.784 12.705-10.415H276.141zM120.983 274.283v2.418h-1.548l-1.278 18.966H99.322l-1.277-18.966h-1.548v-2.418zM114.784 227.211c-1.548-11.297-16.795-14.524-36.142-14.938-18.411-.393-24.308-6.908-24.308-6.908s.058 26.379 26.587 35.93c25.191 9.069 35.414-2.767 33.863-14.084z"/><path style="fill:#e6e6e6" d="M105.379 252.824c.323-4.647 7.742-13.186 25.587-9.304 12.904 2.807 17.701-3.882 17.701-3.882s-1.195 18.879-20.601 24.555c-18.428 5.39-23.256-3.197-22.687-11.369z"/><path style="fill:#e6e6e6" d="M109.45 281.404a.69.69 0 0 0 .526-.244c1.294-1.529.235-5.19-1.229-10.258-1.88-6.504-4.219-14.597-2.238-20.475 1.118-3.318 2.502-6.243 3.839-9.073 2.801-5.924 5.22-11.04 3.202-16.383a.688.688 0 1 0-1.288.486c1.811 4.796-.382 9.435-3.159 15.308-1.292 2.731-2.755 5.827-3.899 9.221-2.119 6.286.287 14.609 2.22 21.297 1.14 3.944 2.318 8.021 1.501 8.987a.689.689 0 0 0 .525 1.134z"/><ellipse style="fill:#f5f5f5" cx="250" cy="416.238" rx="193.889" ry="11.323"/><path style="fill:#00b8db" d="M249.96 361.048h-142l-7.772-228.367h142z"/><path style="fill:#00b8db" d="M257.047 353.961h-142l-7.773-228.367h142z"/><path style="opacity:.3;fill:#fff" d="M257.047 353.961h-142l-7.773-228.367h142z"/><ellipse transform="rotate(-45.486 180.5 191.089)" style="fill:#00b8db" cx="180.503" cy="191.093" rx="39.269" ry="40.629"/><path style="fill:#fff" d="M213.469 191.089c.194 5.693-1.068 11.038-3.449 15.703-5.211 10.275-15.862 17.263-28.395 17.263-12.532 0-23.659-6.988-29.57-17.263a33.57 33.57 0 0 1-4.518-15.703c-.62-18.21 13.635-32.966 31.844-32.966 18.209 0 33.468 14.756 34.088 32.966z"/><path style="opacity:.6;fill:#00b8db" d="M210.019 206.792c-5.211 10.275-15.862 17.263-28.395 17.263-12.532 0-23.659-6.988-29.57-17.263 8.111-5.544 17.96-8.781 28.683-8.781 10.725 0 20.794 3.236 29.282 8.781z"/><ellipse transform="rotate(-45.486 180.114 179.806)" style="opacity:.6;fill:#00b8db" cx="180.119" cy="179.811" rx="14.437" ry="14.937"/><path style="fill:#fff" d="M228.524 271.261H137.94l-.613-18h90.585zM229.62 303.434h-90.585l-.613-18h90.585z"/><path style="fill:#00b8db" d="m194.658 287.908-21.829 2.968c-.897.122-1.487.939-1.317 1.807l2.866 14.628c.171.874 1.042 1.486 1.939 1.365l21.829-2.968c.897-.122 1.488-.933 1.317-1.807l-2.866-14.628c-.17-.869-1.042-1.487-1.939-1.365zm-6.272 14.819-3.952.538-.398-4.721a2.784 2.784 0 0 1-1.622-1.996c-.28-1.43.686-2.755 2.153-2.955 1.462-.199 2.883.802 3.164 2.232a2.434 2.434 0 0 1-.776 2.322l1.431 4.58zM192.504 287.124c-.798.108-1.568-.434-1.72-1.211l-.281-1.432c-.772-3.941-4.54-6.916-8.619-6.561-4.36.38-7.283 4.23-6.467 8.394l.322 1.645c.152.777-.371 1.495-1.169 1.603-.798.108-1.568-.434-1.72-1.211l-.273-1.396c-1.076-5.492 2.381-10.772 7.974-11.745 5.88-1.024 11.678 2.942 12.799 8.665l.322 1.645c.152.777-.371 1.495-1.168 1.604zM214.667 328.639h-58.964l-.398-11.717h58.963z"/><path style="fill:#263238" d="M186.218 262.261c.062 1.818-1.362 3.292-3.18 3.292s-3.342-1.474-3.404-3.292c-.062-1.818 1.362-3.292 3.18-3.292s3.342 1.474 3.404 3.292zM172.045 262.261a3.16 3.16 0 0 1-3.18 3.292c-1.818 0-3.342-1.474-3.404-3.292-.062-1.818 1.362-3.292 3.18-3.292s3.342 1.474 3.404 3.292zM157.872 262.261a3.16 3.16 0 0 1-3.18 3.292c-1.818 0-3.342-1.474-3.404-3.292a3.16 3.16 0 0 1 3.18-3.292c1.818 0 3.342 1.474 3.404 3.292zM200.391 262.261c.062 1.818-1.362 3.292-3.18 3.292s-3.342-1.474-3.404-3.292a3.16 3.16 0 0 1 3.18-3.292c1.818 0 3.342 1.474 3.404 3.292zM214.564 262.261a3.16 3.16 0 0 1-3.18 3.292c-1.818 0-3.342-1.474-3.404-3.292-.062-1.818 1.362-3.292 3.18-3.292s3.343 1.474 3.404 3.292z"/><path style="fill:#ff9c8f" d="M333.91 174.281c1.333 2.135 2.435 4.184 3.579 6.311 1.139 2.106 2.169 4.273 3.18 6.456 1.989 4.383 3.769 8.905 5.099 13.731.178.592.314 1.22.462 1.835l.219.925.109.462.13.762c.286 2.032.035 3.689-.312 5.151-.717 2.914-1.873 5.238-3.112 7.456-2.529 4.391-5.481 8.131-8.886 11.673l-4.211-3.188c2.076-3.94 4.128-8.068 5.637-12.037.731-1.974 1.346-3.983 1.526-5.632.087-.811.029-1.508-.083-1.767l-.395-1.222c-.164-.502-.31-1.001-.508-1.507-1.441-4.035-3.274-8.088-5.269-12.084-1.967-3.981-4.147-8.034-6.293-11.817l9.128-5.508z"/><path style="fill:#ff9c8f" d="m331.236 224.425-4.591 2.437 5.278 6.18s3.295-2.229 3.444-5.633l-4.131-2.984zM320.466 230.673l5.656 4.487 5.801-2.117-5.279-6.18z"/><path style="fill:#263238" d="M301.151 141.564c-.113.556-.499.947-.863.873-.363-.074-.566-.584-.453-1.14.113-.556.499-.947.863-.873.363.074.566.585.453 1.14z"/><path style="fill:#ff5652" d="M300.703 142.522s-1.916 2.95-3.622 4.215c.797 1.118 2.555 1.038 2.555 1.038l1.067-5.253z"/><path style="fill:#ff9c8f" d="m298.901 162.138.043-6.554 8.68 1.049s-.149 5.636-4.996 7.293l-3.727-1.788zM301.396 150.864l6.112 1.756.117 4.013-8.681-1.049z"/><path style="opacity:.2" d="m307.51 152.62-6.11-1.76-1.19 2.28a9.733 9.733 0 0 0 5.64 8.48c1.7-2.23 1.77-4.99 1.77-4.99l-.11-4.01z"/><path style="fill:#263238" d="M303.814 138.891a.333.333 0 0 0 .244-.56c-1.251-1.354-2.769-1.113-2.835-1.102a.333.333 0 0 0 .111.657c.05-.008 1.237-.182 2.235.898a.333.333 0 0 0 .245.107z"/><path style="fill:#ff9c8f" d="M316.591 151.683c-1.009 5.146-1.618 12.275 1.982 15.709 0 0-1.407 5.22-10.968 5.22-10.514 0-5.058-4.581-5.058-4.581 4.37-1.356 4.332-6.334 3.332-10.333l10.712-6.015z"/><path style="fill:#00b8db" d="M320.542 170.833c.936-1.326.899-5.515-.101-6.254-1.614-1.193-8.517-1.467-17.816.671 1.001 4.058-1.143 6.185-1.143 6.185l19.06-.602zM351.795 408.237c-.706.153-1.411.193-1.751-.096-.143-.122-.286-.354-.161-.774a.772.772 0 0 1 .429-.49c.95-.453 3.132.436 3.225.474a.167.167 0 0 1 .009.304 8.855 8.855 0 0 1-1.751.582zm-1.144-1.124a.893.893 0 0 0-.195.065.446.446 0 0 0-.253.284c-.089.3.022.394.059.425.378.322 1.783.025 2.772-.371-.672-.236-1.758-.538-2.383-.403z"/><path style="fill:#00b8db" d="M353.509 407.668a.163.163 0 0 1-.082-.003c-.795-.232-2.496-1.441-2.517-2.238-.004-.145.047-.407.426-.539a.907.907 0 0 1 .738.059c.94.48 1.534 2.428 1.559 2.511a.165.165 0 0 1-.124.21zm-1.991-2.486a.66.66 0 0 0-.073.02c-.206.072-.203.173-.202.216.012.472 1.135 1.42 1.958 1.804-.206-.562-.676-1.671-1.278-1.978a.587.587 0 0 0-.405-.062zM299.865 409.417c-.903 0-1.775-.124-2.067-.53-.102-.142-.183-.384.014-.728a.833.833 0 0 1 .528-.39c1.171-.318 3.629 1.082 3.733 1.142a.167.167 0 0 1-.051.308c-.449.09-1.316.198-2.157.198zm-1.116-1.364c-.117 0-.226.012-.322.038a.504.504 0 0 0-.326.233c-.118.207-.075.31-.032.368.327.455 2.105.465 3.413.28-.653-.334-1.911-.919-2.733-.919z"/><path style="fill:#00b8db" d="M301.989 409.223a.164.164 0 0 1-.068-.015c-.849-.381-2.531-1.902-2.402-2.698.03-.187.163-.419.62-.466.342-.035.651.062.924.286.895.735 1.084 2.629 1.092 2.71a.166.166 0 0 1-.069.151.163.163 0 0 1-.097.032zm-1.716-2.852c-.033 0-.066.002-.1.005-.3.03-.319.148-.325.187-.077.477 1.065 1.673 1.932 2.193-.09-.553-.341-1.687-.928-2.169a.894.894 0 0 0-.579-.216z"/><path style="fill:#ff9c8f" d="M309.724 409.056h-7.034l-.7-16.288h7.033zM361.349 405.8l-6.874 1.488-6.902-15.171 6.874-1.489z"/><path style="fill:#263238" d="m353.814 406.598 7.723-1.672a.613.613 0 0 1 .687.343l2.681 5.817a1.034 1.034 0 0 1-.742 1.44c-2.706.537-4.05.663-7.447 1.398-2.09.452-6.807 1.602-9.692 2.226-2.822.611-3.88-2.147-2.755-2.661 5.046-2.305 7.154-4.335 8.52-6.227a1.71 1.71 0 0 1 1.025-.664zM302.736 408.242h7.681c.288 0 .536.2.599.48l1.389 6.252a1.023 1.023 0 0 1-1.012 1.251c-2.771-.047-6.775-.21-10.257-.21-4.072 0-7.589.222-12.365.222-2.888 0-3.689-2.919-2.48-3.184 5.503-1.204 9.995-1.333 14.75-4.264.518-.318 1.088-.547 1.695-.547z"/><path style="fill:#00b8db" d="M331.167 168.982c6.592 1.511 12.028 18.341 12.028 18.341l-13.238 10.09s-4.859-4.581-7.021-12.999c-2.267-8.821 1.49-16.977 8.231-15.432z"/><path style="opacity:.4" d="M331.167 168.982c6.592 1.511 12.028 18.341 12.028 18.341l-13.238 10.09s-4.859-4.581-7.021-12.999c-2.267-8.821 1.49-16.977 8.231-15.432z"/><path style="fill:#ff9c8f" d="M296.502 189.067c-1.645 1.775-3.285 3.354-4.984 4.979-.843.808-1.705 1.6-2.586 2.377l-1.328 1.163-.334.289c-.162.139-.359.304-.57.465-.44.325-.922.704-1.932 1.141-.535.206-1.223.479-2.432.503a5.92 5.92 0 0 1-2.1-.373 5.847 5.847 0 0 1-2.001-1.272c-1.046-1.051-1.362-1.973-1.568-2.59a7.222 7.222 0 0 1-.285-1.487 9.623 9.623 0 0 1 .02-1.787c.047-.48.113-.895.186-1.287.294-1.542.71-2.786 1.161-4.032a37.591 37.591 0 0 1 1.554-3.614c.635-1.274 1.248-2.198 1.859-3.263 2.471-4.13 5.371-7.902 8.452-11.457 3.148-3.531 6.452-6.759 10.251-9.717l3.681 3.787c-2.586 3.459-5.128 7.166-7.477 10.822-2.347 3.683-4.524 7.433-6.398 11.246-.432.942-.965 1.974-1.265 2.762a27.85 27.85 0 0 0-.938 2.697c-.262.9-.473 1.838-.568 2.526a3.385 3.385 0 0 0-.033.395c-.003.077.017.12.007-.093-.01-.116-.021-.289-.129-.655-.122-.348-.312-1.007-1.154-1.859a4.791 4.791 0 0 0-3.332-1.35c-.925.021-1.338.21-1.612.308-.49.212-.5.269-.495.247l.384-.35 1.201-1.1 2.391-2.239c1.582-1.491 3.174-3.081 4.677-4.557l7.697 7.375z"/><path style="opacity:.2" d="M325.517 181.358c3.581 3.543 4.749 9.996 5.027 15.606l-.584.45s-4.864-4.586-7.028-13.002a24.486 24.486 0 0 1-.345-1.57l2.93-1.484z"/><path style="fill:#00b8db" d="M289.508 176.035c-1.438 7.599-2.338 23.203 1.837 54.105h37.621c.259-5.775-3.37-33.947 2.201-61.158 0 0-6.449-1.294-12.594-1.59-4.807-.232-11.767-.385-15.993.001a61.135 61.135 0 0 0-5.038.689 9.953 9.953 0 0 0-8.034 7.953z"/><path style="opacity:.4" d="M289.508 176.035c-1.438 7.599-2.338 23.203 1.837 54.105h37.621c.259-5.775-3.37-33.947 2.201-61.158 0 0-6.449-1.294-12.594-1.59-4.807-.232-11.767-.385-15.993.001a61.135 61.135 0 0 0-5.038.689 9.953 9.953 0 0 0-8.034 7.953z"/><path style="opacity:.2" d="m295.265 187.266-6.798-1.628c-.211 4.117-.23 9.22.077 15.53 3.131-3.562 7.123-9.115 6.721-13.902zM301.991 392.772l.36 8.396h7.037l-.36-8.396zM354.451 390.632l-6.878 1.489 3.561 7.82 6.878-1.489z"/><path style="fill:#ff9c8f" d="M319.934 144.155c-1.807 6.743-2.522 10.781-6.683 13.585-6.259 4.217-14.051-.623-14.295-7.77-.219-6.433 2.773-16.379 10.008-17.738 7.129-1.338 12.777 5.18 10.97 11.923z"/><path style="fill:#263238" d="M304.147 144.414c-.334-.904-1.892-7.872-.43-9.681 1.463-1.809 18.111-.508 20.573 1.915 4.084 4.019 1.251 7.606-3.22 12.234-3.363 3.48-3.492 7.403-5.188 7.978-2.972 1.009-7.581.061-8.505-3.112-.924-3.172-3.23-9.334-3.23-9.334z"/><path style="fill:#263238" d="M322.274 128.722c-5.885-2.506-16.917.266-22.875-1.17-.213 3.085 1.649 8.032 7.606 9.362 0 0 8.457 1.649 15 1.383 6.543-.266 5.266-7.447.269-9.575z"/><path style="fill:#263238" d="M323.194 136.861s3.639.41 6.222-1.194c1.105 2.659-4.944 3.389-6.222 1.194z"/><path style="fill:#ff9c8f" d="M307.354 144.691c-.109 1.825-.956 3.542-1.976 4.666-1.533 1.689-3.133.638-3.405-1.42-.245-1.852.258-4.963 2.133-5.894 1.847-.919 3.372.561 3.248 2.648z"/><path style="fill:#00b8db" d="M304.69 230.14s7.982 53.753 12.365 73.891c4.799 22.053 30.531 95.014 30.531 95.014l12.591-2.726s-17.993-59.458-22.021-90.289c-3.094-23.682-9.19-75.89-9.19-75.89H304.69z"/><path style="fill:#263238" d="M344.571 394.842c-.054.012 2.347 4.553 2.347 4.553l14.166-3.067-1.194-4.259-15.319 2.773z"/><path style="opacity:.3" d="M309.735 249.292c9.23 1.81 8.253 36.23 7.143 53.933-2.662-12.514-6.558-36.594-9.22-53.684.612-.306 1.302-.402 2.077-.249z"/><path style="fill:#00b8db" d="M291.345 230.14s-.969 52.59-.204 74.039c.796 22.311 8.589 95.363 8.589 95.363h11.915s.437-71.748.967-93.66c.578-23.887 3.462-75.742 3.462-75.742h-24.729z"/><path style="fill:#263238" d="M297.437 394.796c-.055 0 .672 4.947.672 4.947h14.494l.392-4.415-15.558-.532z"/><path style="fill:#00b8db" d="M304.252 178.342c3.373 9.089-16.442 19.795-16.442 19.795l-8.578-11.028s5.723-11.39 12.746-16.525c8.675-6.343 9.706.839 12.274 7.758z"/><path style="opacity:.4" d="M304.252 178.342c3.373 9.089-16.442 19.795-16.442 19.795l-8.578-11.028s5.723-11.39 12.746-16.525c8.675-6.343 9.706.839 12.274 7.758z"/><ellipse style="fill:#00b8db" cx="381.875" cy="86.333" rx="36.087" ry="23"/><path style="fill:#fff" d="M368.846 97.91c-2.005 0-3.962-.6-5.662-1.759a10.03 10.03 0 0 1-4.266-6.634c-.898-5.207 2.56-10.395 7.709-11.565 4.24-.961 8.546.846 10.823 4.517l23.167-4.781c1.877-.387 3.784.732 4.246 2.497.245.938.1 1.907-.41 2.729a3.461 3.461 0 0 1-2.26 1.577l-.608.126a.605.605 0 0 0-.418.309.613.613 0 0 0-.035.519l.408 1.062c.277.719.019 1.528-.616 1.923-.494.308-.83.836-.897 1.414-.082.708-.555 1.253-1.204 1.387l-.477.098c-.647.132-1.297-.178-1.654-.796a1.931 1.931 0 0 0-2.068-.924 1.944 1.944 0 0 0-1.542 1.67c-.085.709-.558 1.253-1.205 1.386l-.467.096c-.641.133-1.297-.179-1.654-.796a1.954 1.954 0 0 0-1.392-.942c-.739-.11-1.298-.75-1.329-1.522l-.046-1.137a.606.606 0 0 0-.236-.462.61.61 0 0 0-.507-.119l-7.382 1.524a10.08 10.08 0 0 1-7.951 8.393c-.689.139-1.381.21-2.067.21zm-1.998-18.983c-4.639 1.054-7.754 5.729-6.943 10.42.423 2.455 1.788 4.577 3.843 5.978s4.527 1.896 6.964 1.393a9.084 9.084 0 0 0 7.206-7.888l.041-.36 8.085-1.669a1.618 1.618 0 0 1 1.945 1.521l.046 1.137c.011.288.216.535.476.573a2.926 2.926 0 0 1 2.11 1.43c.11.19.319.373.588.318l.467-.096c.265-.055.388-.307.414-.525a2.94 2.94 0 0 1 2.333-2.53 2.933 2.933 0 0 1 3.135 1.402c.11.19.318.375.587.318l.478-.098c.265-.055.387-.306.411-.523a2.911 2.911 0 0 1 1.364-2.147c.224-.139.313-.446.21-.714l-.408-1.063a1.618 1.618 0 0 1 1.185-2.165l.608-.126a2.467 2.467 0 0 0 1.612-1.124 2.474 2.474 0 0 0 .293-1.948c-.33-1.258-1.713-2.054-3.078-1.77l-23.869 4.926-.18-.314a9.054 9.054 0 0 0-9.923-4.356zm2.011 15.286a6.365 6.365 0 0 1-3.508-1.056 6.359 6.359 0 0 1-2.752-4.056 6.357 6.357 0 0 1 .921-4.817 6.367 6.367 0 0 1 4.057-2.749 6.36 6.36 0 0 1 4.816.918 6.358 6.358 0 0 1 2.749 4.059 6.361 6.361 0 0 1-.918 4.813 6.359 6.359 0 0 1-4.06 2.754c-.434.09-.871.134-1.305.134zm.03-11.813c-.369 0-.74.038-1.11.114a5.373 5.373 0 0 0-3.423 2.32 5.372 5.372 0 0 0-.777 4.065 5.369 5.369 0 0 0 2.323 3.422 5.37 5.37 0 0 0 4.063.778 5.37 5.37 0 0 0 3.425-2.324 5.37 5.37 0 0 0 .775-4.062 5.373 5.373 0 0 0-2.32-3.426 5.383 5.383 0 0 0-2.956-.887z"/><ellipse style="opacity:.6;fill:#00b8db" cx="352.495" cy="115.258" rx="11.861" ry="7.56"/><ellipse style="opacity:.3;fill:#00b8db" cx="333.629" cy="122.817" rx="4.869" ry="3.103"/></svg>